#!OML:ASF F:\VICON\USERDATA\INSTALL\rory3\rory3.ASF
:FULLY-SPECIFIED
:DEGREES
1046
root 13.7709 17.475 -0.279719 -172.295 164.782 -177.463
lowerback 5.24231 -2.87415 -5.09543
upperback 1.55291 -4.0352 3.60249
thorax -0.711079 -2.04334 6.83115
lowerneck -4.47409 -6.69867 -11.7655
upperneck 39.7722 -8.33732 1.80432
head 15.391 -5.00724 1.68257
rclavicle -5.74488e-014 -2.22639e-014
rhumerus -24.1934 3.74253 -78.0395
rradius 55.622
rwrist 15.3696
rhand -24.0612 2.84572
rfingers 7.12502
rthumb 2.4183 -27.1203
lclavicle -5.74488e-014 -2.22639e-014
lhumerus -36.4464 15.5971 73.9051
lradius 26.3428
lwrist -7.84563
lhand -12.9033 26.5487
lfingers 7.12502
lthumb 13.1864 56.1117
rfemur -35.5279 17.1019 8.58252
rtibia 34.9232
rfoot -0.861503 18.511
rtoes 2.19305
lfemur -10.597 -10.949 -15.9441
ltibia 25.0764
lfoot -20.8413 -16.9951
ltoes -15.5392
1047
root 13.8327 17.4829 -0.364728 -172.186 165.801 -177.277
lowerback 5.27675 -3.08744 -5.54933
upperback 1.46161 -4.34437 3.79783
thorax -0.725849 -2.19871 7.3151
lowerneck -4.4678 -6.62852 -11.9795
upperneck 39.7604 -8.14447 1.57096
head 15.3712 -4.9951 1.64577
rclavicle 2.38542e-015 1.66979e-014
rhumerus -24.2199 3.89496 -77.7615
rradius 55.6747
rwrist 15.2897
rhand -24.0056 2.52562
rfingers 7.12502
rthumb 2.47198 -27.4398
lclavicle 2.38542e-015 1.66979e-014
lhumerus -36.5359 16.5597 73.6955
lradius 26.1253
lwrist -8.0393
lhand -13.009 26.5532
lfingers 7.12502
lthumb 13.0846 56.1228
rfemur -35.9146 17.0908 8.10401
rtibia 34.7696
rfoot -1.07233 18.1128
rtoes 2.21401
lfemur -10.6371 -10.6013 -16.4841
ltibia 24.8765
lfoot -20.8856 -16.6932
ltoes -16.218
1048
root 13.887 17.491 -0.445689 -172.098 166.795 -176.951
lowerback 5.27393 -3.15807 -6.0422
upperback 1.44998 -4.46587 3.82085
thorax -0.674748 -2.26362 7.62621
lowerneck -4.37949 -6.67663 -12.133
upperneck 39.6942 -8.25348 1.63083
head 15.3425 -5.06458 1.68132
rclavicle 1.03368e-014 -9.54166e-015
rhumerus -24.2115 3.25677 -77.5497
rradius 55.6065
rwrist 15.4342
rhand -24.1618 2.41878
rfingers 7.12502
rthumb 2.32112 -27.5483
lclavicle 1.03368e-014 -9.54166e-015
lhumerus -36.2176 16.7961 73.6765
lradius 25.7993
lwrist -7.76097
lhand -13.0402 26.5885
lfingers 7.12502
lthumb 13.0544 56.1599
rfemur -36.2575 17.0598 7.53516
rtibia 34.712
rfoot -1.5084 17.2833
rtoes 3.27684
lfemur -10.665 -10.147 -17.1405
ltibia 24.7666
lfoot -20.5488 -16.742
ltoes -15.7908
1049
root 13.9396 17.5002 -0.522748 -171.943 167.698 -176.703
lowerback 5.14437 -3.18254 -6.34621
upperback 1.49268 -4.50957 3.75151
thorax -0.53157 -2.29389 7.71644
lowerneck -4.46469 -6.83038 -11.9529
upperneck 39.6094 -8.52674 1.60665
head 15.3281 -5.16187 1.59398
rclavicle -1.53064e-014 7.95139e-016
rhumerus -24.0953 2.16249 -77.4184
rradius 55.521
rwrist 15.8528
rhand -24.2347 1.74848
rfingers 7.12502
rthumb 2.25073 -28.2194
lclavicle -1.53064e-014 7.95139e-016
lhumerus -35.6631 16.3839 73.7808
lradius 25.5406
lwrist -7.2429
lhand -13.1241 27.0744
lfingers 7.12502
lthumb 12.9735 56.651
rfemur -36.5816 16.694 7.21147
rtibia 34.6556
rfoot -2.54596 16.2792
rtoes 3.13344
lfemur -10.8714 -9.54255 -17.6497
ltibia 24.8464
lfoot -20.3462 -16.8283
ltoes -15.8159
1050
root 13.9772 17.5021 -0.608354 -171.968 168.712 -176.979
lowerback 5.33567 -3.20975 -6.41838
upperback 1.45994 -4.55833 3.91941
thorax -0.643312 -2.31434 7.9544
lowerneck -4.55075 -6.89879 -11.8711
upperneck 39.6166 -8.62832 1.5
head 15.3484 -5.21342 1.51333
rclavicle -2.00773e-014 -1.59028e-015
rhumerus -24.0559 1.59607 -77.2653
rradius 55.3751
rwrist 16.3466
rhand -24.2732 0.979496
rfingers 7.12502
rthumb 2.21351 -28.9888
lclavicle -2.00773e-014 -1.59028e-015
lhumerus -35.4893 16.099 73.8351
lradius 25.6254
lwrist -6.66858
lhand -13.0867 27.7942
lfingers 7.12502
lthumb 13.0096 57.3685
rfemur -36.9286 16.791 7.46495
rtibia 34.6104
rfoot -4.06914 14.4018
rtoes 2.54086
lfemur -11.1783 -8.52048 -17.5219
ltibia 24.894
lfoot -20.7329 -17.0179
ltoes -17.0803
1051
root 14.0141 17.5074 -0.689994 -172.058 169.772 -177.443
lowerback 5.50228 -3.20123 -6.2815
upperback 1.45932 -4.54572 4.11082
thorax -0.733971 -2.30524 8.09299
lowerneck -4.42006 -6.96033 -11.9039
upperneck 39.4489 -8.79152 1.5883
head 15.2548 -5.28423 1.53561
rclavicle 4.47266e-014 4.21423e-014
rhumerus -24.1732 1.09334 -77.1348
rradius 55.3074
rwrist 16.5143
rhand -24.4224 0.839472
rfingers 7.12502
rthumb 2.06939 -29.1302
lclavicle 4.47266e-014 4.21423e-014
lhumerus -35.248 15.6715 73.9505
lradius 25.6652
lwrist -5.96691
lhand -13.2753 27.6133
lfingers 7.12502
lthumb 12.8278 57.1991
rfemur -37.1878 16.8039 8.03495
rtibia 34.5877
rfoot -5.62702 12.265
rtoes 2.77909
lfemur -11.3764 -7.46902 -17.2097
ltibia 24.8231
lfoot -21.1138 -17.1535
ltoes -18.5669
1052
root 14.0654 17.5242 -0.742058 -172.059 170.92 -177.252
lowerback 5.15179 -3.21083 -6.57029
upperback 1.57154 -4.55801 4.05345
thorax -0.400214 -2.33116 8.16686
lowerneck -3.96532 -6.99041 -12.09
upperneck 38.9428 -8.99123 1.90592
head 14.9471 -5.3647 1.69082
rclavicle -1.39149e-014 -4.77083e-015
rhumerus -24.3432 0.539919 -77.0365
rradius 55.2258
rwrist 16.613
rhand -24.8016 0.652769
rfingers 7.12502
rthumb 1.70319 -29.3202
lclavicle -1.39149e-014 -4.77083e-015
lhumerus -34.9454 15.3854 73.9558
lradius 25.6364
lwrist -5.549
lhand -13.3342 27.1351
lfingers 7.12502
lthumb 12.771 56.7245
rfemur -37.1552 16.165 8.17454
rtibia 34.5948
rfoot -7.17012 10.4315
rtoes 1.75881
lfemur -11.2439 -6.63651 -17.7431
ltibia 24.6885
lfoot -21.1885 -17.2484
ltoes -18.6448
1053
root 14.1183 17.5377 -0.792448 -172.123 172.048 -177.034
lowerback 4.84479 -3.22158 -6.75504
upperback 1.75031 -4.56584 3.92956
thorax -0.0361815 -2.35779 8.11003
lowerneck -4.04573 -7.06595 -12.1233
upperneck 38.8122 -9.17409 2.07539
head 14.9293 -5.43171 1.73508
rclavicle -8.94531e-014 6.91771e-014
rhumerus -24.3961 -0.0629355 -77.0143
rradius 55.0853
rwrist 16.5522
rhand -25.1192 0.139506
rfingers 7.12502
rthumb 1.39646 -29.8357
lclavicle -8.94531e-014 6.91771e-014
lhumerus -34.5432 15.2208 73.8899
lradius 25.6997
lwrist -5.3822
lhand -13.0312 27.0602
lfingers 7.12502
lthumb 13.0631 56.6311
rfemur -36.9836 15.245 8.43998
rtibia 34.6143
rfoot -8.58361 8.52611
rtoes -0.146568
lfemur -11.0192 -6.06044 -18.3328
ltibia 24.5109
lfoot -21.0899 -17.0892
ltoes -18.6422
1054
root 14.1678 17.5491 -0.853282 -172.307 173.191 -177.163
lowerback 4.85139 -3.22005 -6.70988
upperback 1.78699 -4.56231 3.96057
thorax -0.00331859 -2.35902 8.11617
lowerneck -4.10201 -7.10713 -12.1216
upperneck 38.9793 -9.2465 2.0185
head 15.0291 -5.47913 1.6937
rclavicle 3.51849e-014 -4.13472e-014
rhumerus -24.784 -0.412593 -76.9373
rradius 55.0528
rwrist 16.3367
rhand -25.4368 -0.542959
rfingers 7.12502
rthumb 1.08974 -30.5199
lclavicle 3.51849e-014 -4.13472e-014
lhumerus -34.5203 14.9235 73.8723
lradius 25.9784
lwrist -5.14063
lhand -13.0623 27.2531
lfingers 7.12502
lthumb 13.0331 56.826
rfemur -36.7676 14.2887 9.21564
rtibia 34.6658
rfoot -9.8957 6.53733
rtoes -2.49965
lfemur -10.7008 -5.58705 -18.5145
ltibia 24.2493
lfoot -20.8759 -16.6098
ltoes -18.3893
1055
root 14.2151 17.5605 -0.911683 -172.516 174.407 -177.45
lowerback 4.81544 -3.24536 -6.60682
upperback 1.82432 -4.58948 4.1084
thorax 0.0652586 -2.37824 8.21181
lowerneck -4.02257 -7.08372 -12.3866
upperneck 39.0349 -9.25432 2.13715
head 15.0689 -5.51724 1.78632
rclavicle -3.85642e-014 3.57812e-014
rhumerus -25.0808 -0.686954 -76.826
rradius 54.8802
rwrist 16.1746
rhand -25.496 -0.552302
rfingers 7.12502
rthumb 1.03253 -30.5295
lclavicle -3.85642e-014 3.57812e-014
lhumerus -34.6393 14.9034 73.8657
lradius 26.415
lwrist -5.00977
lhand -13.1225 27.5897
lfingers 7.12502
lthumb 12.9751 57.1662
rfemur -36.55 13.3741 10.2127
rtibia 34.7486
rfoot -10.7649 4.65623
rtoes -1.92583
lfemur -10.345 -5.11058 -18.5367
ltibia 24.0389
lfoot -20.9357 -15.7011
ltoes -18.839
1056
root 14.2606 17.5729 -0.974157 -172.642 175.595 -177.692
lowerback 4.76823 -3.23171 -6.44549
upperback 1.84535 -4.56184 4.19251
thorax 0.102149 -2.36656 8.20439
lowerneck -3.93527 -7.08732 -12.7772
upperneck 39.1382 -9.37055 2.49697
head 15.1671 -5.59134 1.98498
rclavicle 1.43125e-014 -2.22639e-014
rhumerus -25.3257 -1.28474 -76.726
rradius 54.5675
rwrist 16.1335
rhand -25.4643 0.112192
rfingers 7.12502
rthumb 1.06314 -29.8649
lclavicle 1.43125e-014 -2.22639e-014
lhumerus -34.722 14.5653 73.9043
lradius 26.9915
lwrist -4.71556
lhand -13.0873 27.7961
lfingers 7.12502
lthumb 13.0091 57.3704
rfemur -36.4051 12.2596 11.2005
rtibia 34.8407
rfoot -11.2593 3.0941
rtoes -0.848968
lfemur -10.1546 -4.81677 -18.6014
ltibia 23.9351
lfoot -20.9999 -14.6919
ltoes -19.1776
1057
root 14.311 17.588 -1.03551 -172.65 176.765 -177.646
lowerback 4.66296 -3.25663 -6.50563
upperback 1.79547 -4.59372 4.20003
thorax 0.120592 -2.38266 8.24205
lowerneck -3.76413 -7.08792 -13.1544
upperneck 39.2389 -9.46641 2.7661
head 15.2381 -5.66815 2.15026
rclavicle 4.29375e-014 -2.22639e-014
rhumerus -25.7423 -1.6356 -76.6106
rradius 54.2857
rwrist 16.2595
rhand -25.8625 0.609571
rfingers 7.12502
rthumb 0.67852 -29.3691
lclavicle 4.29375e-014 -2.22639e-014
lhumerus -34.9791 14.206 73.9418
lradius 27.5976
lwrist -4.50173
lhand -13.1419 27.5671
lfingers 7.12502
lthumb 12.9564 57.1448
rfemur -36.3107 10.8495 11.9051
rtibia 35.0114
rfoot -11.7937 1.95108
rtoes -1.54482
lfemur -10.1077 -4.51872 -19.0135
ltibia 23.8362
lfoot -21.0779 -13.7216
ltoes -19.4766
1058
root 14.3576 17.6023 -1.0894 -172.634 177.978 -177.696
lowerback 4.4204 -3.21507 -6.37437
upperback 1.83107 -4.5213 4.13874
thorax 0.263158 -2.35189 8.08048
lowerneck -3.90073 -7.15699 -13.1847
upperneck 39.3583 -9.6224 2.87374
head 15.3565 -5.73387 2.16819
rclavicle -5.62561e-014 3.97569e-014
rhumerus -26.1109 -2.02014 -76.5884
rradius 54.0268
rwrist 16.1439
rhand -26.4556 0.835754
rfingers 7.12502
rthumb 0.105747 -29.144
lclavicle -5.62561e-014 3.97569e-014
lhumerus -34.9137 13.3432 74.079
lradius 28.0876
lwrist -3.87997
lhand -13.3187 27.3765
lfingers 7.12502
lthumb 12.786 56.9649
rfemur -36.2582 9.57424 12.676
rtibia 35.2946
rfoot -12.5371 0.933844
rtoes -2.42895
lfemur -9.99926 -4.2143 -19.311
ltibia 23.6336
lfoot -21.1543 -12.7028
ltoes -20.0599
1059
root 14.4034 17.6091 -1.15105 -172.524 179.22 -177.642
lowerback 4.18817 -3.14144 -6.29747
upperback 1.82344 -4.40918 4.01451
thorax 0.347153 -2.29664 7.88562
lowerneck -4.08168 -7.2373 -13.0336
upperneck 39.4871 -9.79952 2.91776
head 15.4727 -5.78888 2.12383
rclavicle 4.33351e-014 -3.10104e-014
rhumerus -26.4256 -2.45778 -76.6324
rradius 53.6488
rwrist 15.8857
rhand -26.7703 0.860159
rfingers 7.12502
rthumb -0.198212 -29.1195
lclavicle 4.33351e-014 -3.10104e-014
lhumerus -34.8514 12.7005 74.0474
lradius 28.6418
lwrist -3.5615
lhand -13.308 27.3245
lfingers 7.12502
lthumb 12.7963 56.9123
rfemur -36.4097 8.5286 13.2125
rtibia 35.6623
rfoot -12.9625 -0.138796
rtoes -1.75773
lfemur -10.012 -3.96009 -19.7087
ltibia 23.4002
lfoot -21.0834 -11.5989
ltoes -20.8381
1060
root 14.4482 17.6163 -1.21264 -172.34 180.479 -177.269
lowerback 3.97237 -3.13524 -6.62861
upperback 1.6308 -4.4042 3.93334
thorax 0.285824 -2.28732 7.98182
lowerneck -3.8617 -7.15045 -13.3622
upperneck 39.5368 -9.7724 3.17257
head 15.4893 -5.80946 2.29849
rclavicle 8.60738e-014 -5.40694e-014
rhumerus -26.9278 -2.52716 -76.4896
rradius 53.341
rwrist 15.8884
rhand -26.7312 0.797829
rfingers 7.12502
rthumb -0.160504 -29.1819
lclavicle 8.60738e-014 -5.40694e-014
lhumerus -35.1696 12.7476 73.8868
lradius 29.2037
lwrist -3.81691
lhand -13.1232 27.5435
lfingers 7.12502
lthumb 12.9745 57.12
rfemur -36.7056 7.41052 13.391
rtibia 36.0336
rfoot -12.9659 -1.18818
rtoes -1.42043
lfemur -10.1645 -3.73707 -20.4458
ltibia 23.2643
lfoot -21.0281 -10.5578
ltoes -21.4564
